<svg width="43" height="43" viewBox="0 0 43 43" fill="none" xmlns="http://www.w3.org/2000/svg">
<path d="M38.9065 5.05986C38.5242 4.74299 38.0633 4.53548 37.5726 4.45932C37.082 4.38316 36.5798 4.44119 36.1195 4.62726L4.35402 17.4508C3.84071 17.6618 3.40369 18.0238 3.10098 18.489C2.79828 18.9541 2.6442 19.5003 2.6592 20.0551C2.67421 20.6098 2.85758 21.1469 3.18499 21.595C3.5124 22.0431 3.96835 22.381 4.49231 22.5639L11.3464 24.9432L15.0607 37.2224C15.0678 37.2473 15.0908 37.2632 15.1015 37.2863C15.1397 37.3842 15.1956 37.4744 15.2664 37.5522C15.3738 37.6722 15.5126 37.76 15.667 37.8057C15.6848 37.8128 15.6972 37.8288 15.7149 37.8323H15.7255L15.7309 37.8341C15.868 37.8636 16.0106 37.8563 16.144 37.8128C16.1581 37.8093 16.1723 37.8093 16.1883 37.804C16.3164 37.759 16.4323 37.685 16.5269 37.5877C16.5375 37.5753 16.5553 37.5735 16.5659 37.5628L21.9077 31.6661L29.7033 37.7029C30.1766 38.0735 30.7599 38.2738 31.361 38.2738C32.6623 38.2738 33.7845 37.3625 34.0523 36.0913L39.8355 7.69265C39.9336 7.21054 39.899 6.71085 39.7354 6.24687C39.5718 5.78289 39.2853 5.37202 38.9065 5.05809V5.05986ZM16.9985 27.2746L15.745 33.3681L13.13 24.7198L26.0989 17.965L17.2396 26.826C17.1169 26.9486 17.0331 27.1046 16.9985 27.2746ZM32.3148 35.735C32.2815 35.8957 32.2074 36.0452 32.0997 36.1691C31.992 36.293 31.8542 36.3871 31.6996 36.4424C31.5488 36.5004 31.3854 36.5182 31.2256 36.4939C31.0658 36.4697 30.9151 36.4043 30.7883 36.3041L22.3439 29.7638C22.1673 29.6275 21.9459 29.5628 21.7238 29.5825C21.5017 29.6022 21.2951 29.7049 21.1454 29.8701L17.4276 33.9674L18.6792 27.8916L31.4248 15.1442C31.574 14.9945 31.6649 14.7963 31.6808 14.5855C31.6968 14.3747 31.6369 14.1651 31.512 13.9945C31.387 13.824 31.2052 13.7037 30.9993 13.6554C30.7935 13.6071 30.5772 13.634 30.3894 13.7312L12.0166 23.3015L5.07206 20.8867C4.88793 20.8259 4.72733 20.7092 4.61262 20.5529C4.49791 20.3966 4.43478 20.2084 4.43203 20.0145C4.4232 19.8189 4.47546 19.6253 4.58157 19.4608C4.68768 19.2962 4.84237 19.1688 5.02419 19.0961L36.7843 6.27254C36.9471 6.20339 37.1259 6.18102 37.3007 6.20796C37.4754 6.2349 37.6392 6.31006 37.7736 6.42501C37.9072 6.53314 38.0082 6.67628 38.0652 6.83845C38.1221 7.00062 38.1329 7.17544 38.0963 7.34338L32.3148 35.7367V35.735Z" fill="white"/>
</svg>
