<svg width="44" height="43" viewBox="0 0 44 43" fill="none" xmlns="http://www.w3.org/2000/svg">
<path d="M40.5374 6.51999C40.5374 6.36353 40.496 6.20986 40.4173 6.07459C40.3387 5.93933 40.2256 5.82729 40.0897 5.74985C39.9537 5.67242 39.7997 5.63235 39.6432 5.63372C39.4868 5.63508 39.3335 5.67784 39.1989 5.75763C37.9512 6.50065 36.596 7.04607 35.1814 7.37454C33.6355 5.89862 31.578 5.07891 29.4407 5.08747C28.2799 5.08912 27.132 5.33171 26.0697 5.79991C25.0075 6.2681 24.054 6.9517 23.2696 7.80744C22.4851 8.66318 21.8869 9.67243 21.5127 10.7713C21.1385 11.8702 20.9964 13.0348 21.0956 14.1914C15.7362 13.6219 10.8189 10.9583 7.41392 6.78061C7.32304 6.66962 7.20659 6.58235 7.07455 6.52628C6.94251 6.47021 6.79884 6.44702 6.65587 6.4587C6.5129 6.47038 6.3749 6.51659 6.25371 6.59335C6.13253 6.67011 6.03179 6.77513 5.96013 6.8994C5.22458 8.18209 4.83766 9.63501 4.83787 11.1136C4.8357 12.7365 5.30504 14.3249 6.18883 15.686L6.08246 15.6275C5.94355 15.5593 5.78932 15.5284 5.63486 15.5377C5.4804 15.547 5.33101 15.5963 5.20132 15.6807C5.06618 15.7685 4.95527 15.8889 4.87876 16.0308C4.80225 16.1727 4.76258 16.3315 4.76341 16.4927C4.75631 16.7019 4.76872 16.9129 4.80241 17.1185C4.8862 18.289 5.21671 19.4286 5.77222 20.4623C6.32773 21.496 7.09567 22.4005 8.02558 23.1163C7.91224 23.1497 7.80672 23.2054 7.71521 23.2801C7.6237 23.3549 7.54806 23.4471 7.49273 23.5515C7.43739 23.6559 7.40348 23.7703 7.393 23.888C7.38251 24.0057 7.39565 24.1243 7.43165 24.2368C7.84121 25.5138 8.55268 26.6732 9.50575 27.6167C10.4588 28.5602 11.6254 29.26 12.9064 29.6566C10.2905 31.1212 7.27762 31.7189 4.30067 31.364C4.10118 31.339 3.89914 31.3826 3.7277 31.4876C3.55625 31.5926 3.42559 31.7528 3.35715 31.9418C3.28871 32.1308 3.28656 32.3375 3.35105 32.5279C3.41554 32.7183 3.54284 32.8812 3.71206 32.9897C7.27465 35.2837 11.4225 36.503 15.6598 36.5019C20.4665 36.555 25.156 35.0182 28.9991 32.1307C32.8421 29.2431 35.6233 25.1665 36.91 20.5349C37.5111 18.5191 37.8178 16.4253 37.8213 14.3208C37.8213 14.1081 37.8213 13.8865 37.816 13.6613C38.7381 12.7237 39.456 11.6053 39.9244 10.3765C40.3927 9.14774 40.6015 7.83346 40.5374 6.51999ZM36.2399 12.7837C36.0942 12.9559 36.02 13.1773 36.0324 13.4025C36.1293 15.6437 35.8513 17.8853 35.2098 20.035C34.0656 24.3187 31.5173 28.0948 27.9729 30.7588C24.4285 33.4229 20.0928 34.8208 15.6598 34.729C12.9544 34.7291 10.2762 34.1884 7.78269 33.1387C10.7132 32.8135 13.4932 31.6708 15.8052 29.841C15.949 29.7279 16.0543 29.5731 16.1067 29.3978C16.1591 29.2225 16.1559 29.0353 16.0976 28.8618C16.0394 28.6884 15.9288 28.5372 15.7813 28.4291C15.6337 28.3209 15.4562 28.2611 15.2733 28.2578C14.1385 28.2393 13.0279 27.9276 12.0493 27.3528C11.0707 26.7781 10.2574 25.9599 9.68858 24.9779C10.4421 24.9797 11.1903 24.8768 11.9118 24.6694C12.102 24.6137 12.268 24.4958 12.3834 24.3347C12.4987 24.1735 12.5567 23.9784 12.5482 23.7804C12.5396 23.5824 12.4649 23.393 12.3361 23.2424C12.2072 23.0918 12.0317 22.9887 11.8374 22.9497C10.5683 22.6957 9.40248 22.0726 8.48622 21.1586C7.56995 20.2445 6.94404 19.0802 6.68703 17.8117C7.43995 18.0559 8.22371 18.192 9.01487 18.216C9.2098 18.2304 9.40364 18.1763 9.5629 18.063C9.72217 17.9497 9.83686 17.7843 9.88715 17.5954C9.94506 17.4121 9.94179 17.2149 9.87783 17.0336C9.81387 16.8522 9.69269 16.6966 9.53257 16.5902C8.63058 15.9898 7.89156 15.1751 7.38166 14.219C6.87176 13.263 6.6069 12.1954 6.61079 11.1119C6.61079 10.3796 6.72958 9.65274 6.96538 8.9613C10.896 13.2057 16.3289 15.7472 22.1061 16.0441C22.2442 16.0589 22.3837 16.0374 22.5108 15.9817C22.638 15.9261 22.7484 15.8382 22.8313 15.7268C22.9192 15.6214 22.9814 15.4971 23.0131 15.3635C23.0448 15.23 23.0451 15.091 23.0139 14.9573C22.8969 14.4683 22.8374 13.9673 22.8366 13.4645C22.8385 11.7137 23.5345 10.0351 24.7722 8.79677C26.0099 7.55843 27.6881 6.86143 29.4389 6.85862C30.3408 6.85605 31.2333 7.04048 32.0603 7.40025C32.8873 7.76003 33.6307 8.28734 34.2436 8.94889C34.3465 9.05869 34.4757 9.14041 34.6191 9.18633C34.7624 9.23224 34.9151 9.24083 35.0627 9.21129C36.3208 8.96358 37.5441 8.56411 38.706 8.02166C38.4039 9.82881 37.5422 11.495 36.2399 12.7837Z" fill="white"/>
</svg>
